<svg xmlns="http://www.w3.org/2000/svg" xmlns:xlink="http://www.w3.org/1999/xlink" viewBox="0 0 50 50"><defs><linearGradient id="d" x1="25.65" y1="7.31" x2="25.65" y2="47.06" gradientUnits="userSpaceOnUse"><stop offset="0" stop-color="#ee2e37"/><stop offset="1" stop-color="#b72025"/></linearGradient><linearGradient id="a" x1="25.65" y1="3.28" x2="25.65" y2="15.5" gradientUnits="userSpaceOnUse"><stop offset="0" stop-color="#fff"/><stop offset="1" stop-color="#010101"/></linearGradient><linearGradient id="b" x1="25.65" y1="6.45" x2="25.65" y2="25.94" gradientUnits="userSpaceOnUse"><stop offset="0" stop-color="#a22226"/><stop offset="1" stop-color="#c1282d"/></linearGradient><linearGradient id="e" x1="25.91" y1="31" x2="25.91" y2="48.28" gradientUnits="userSpaceOnUse"><stop offset="0" stop-color="#e43b41"/><stop offset="1" stop-color="#b72025"/></linearGradient><linearGradient id="f" x1="25.65" y1="48.51" x2="25.65" y2="34.45" xlink:href="#a"/><linearGradient id="g" x1="29.48" y1="10.09" x2="30.15" y2="8.49" xlink:href="#b"/><linearGradient id="h" x1="18.7" y1="12.06" x2="17.85" y2="11.33" xlink:href="#b"/><linearGradient id="i" x1="29.48" y1="-142.51" x2="30.15" y2="-144.11" gradientTransform="matrix(1 0 0 -1 0 -115.33)" xlink:href="#b"/><linearGradient id="j" x1="18.7" y1="-140.36" x2="17.85" y2="-141.09" gradientTransform="matrix(1 0 0 -1 0 -115.33)" xlink:href="#b"/><linearGradient id="k" x1="25.64" y1="1.9" x2="25.64" y2="5.89" xlink:href="#a"/><linearGradient id="c" x1="30.63" y1="8.99" x2="30.63" y2="29.56" gradientUnits="userSpaceOnUse"><stop offset="0" stop-color="#e9e8e8"/><stop offset=".44" stop-color="#b8b7b7"/><stop offset="1" stop-color="#999696"/></linearGradient><linearGradient id="l" x1="31.39" y1="7.86" x2="31.39" y2="31.59" xlink:href="#c"/><linearGradient id="m" x1="23.72" y1="8.3" x2="23.72" y2="28.63" xlink:href="#c"/><linearGradient id="n" x1="21.23" y1="8.95" x2="21.23" y2="29.6" xlink:href="#c"/><linearGradient id="o" x1="19.46" y1="8.89" x2="19.46" y2="29.38" xlink:href="#c"/><linearGradient id="p" x1="22.58" y1="8.92" x2="22.58" y2="27.13" xlink:href="#c"/><linearGradient id="q" x1="22.21" y1="9.94" x2="22.21" y2="23.33" xlink:href="#c"/><linearGradient id="r" x1="21.47" y1="4.37" x2="21.47" y2="58.79" xlink:href="#c"/><linearGradient id="s" x1="21.31" y1="1.11" x2="21.31" y2="69.86" xlink:href="#c"/><linearGradient id="t" x1="21.1" y1="5.8" x2="21.1" y2="51.04" xlink:href="#c"/><linearGradient id="u" x1="18.85" y1="8.65" x2="18.85" y2="29.78" xlink:href="#c"/><linearGradient id="v" x1="20.57" y1="16.61" x2="20.57" y2="24.13" xlink:href="#c"/><linearGradient id="w" x1="22.02" y1="13.11" x2="22.02" y2="28.54" xlink:href="#c"/><linearGradient id="x" x1="22.04" y1="14.55" x2="22.04" y2="28.16" xlink:href="#c"/><linearGradient id="y" x1="22.68" y1="11.6" x2="22.68" y2="29.12" xlink:href="#c"/><linearGradient id="z" x1="22.51" y1="12.17" x2="22.51" y2="28.98" xlink:href="#c"/><linearGradient id="A" x1="23.17" y1="8.94" x2="23.17" y2="30.17" xlink:href="#c"/><linearGradient id="B" x1="19.29" y1="9.09" x2="19.29" y2="35.73" xlink:href="#c"/><linearGradient id="C" x1="19.48" y1="10.24" x2="19.48" y2="27.96" xlink:href="#c"/><linearGradient id="D" x1="19.44" y1="7.26" x2="19.44" y2="44.52" xlink:href="#c"/><linearGradient id="E" x1="20.53" y1="8.18" x2="20.53" y2="30.26" xlink:href="#c"/><linearGradient id="F" x1="32.85" y1="9.81" x2="32.85" y2="28.42" xlink:href="#c"/><linearGradient id="G" x1="27.85" y1="8.26" x2="27.85" y2="29.21" xlink:href="#c"/><linearGradient id="H" x1="20.14" y1="8.53" x2="20.14" y2="38.75" xlink:href="#c"/><linearGradient id="I" x1="21.3" y1="7.87" x2="21.3" y2="30.65" xlink:href="#c"/><linearGradient id="J" x1="32.31" y1="11.21" x2="32.31" y2="25.3" xlink:href="#c"/><linearGradient id="K" x1="19.58" y1="8.98" x2="19.58" y2="41.31" xlink:href="#c"/><linearGradient id="L" x1="20.56" y1="9.74" x2="20.56" y2="29.08" xlink:href="#c"/><linearGradient id="M" x1="31.4" y1="7.88" x2="31.4" y2="53.12" xlink:href="#c"/><linearGradient id="N" x1="31.8" y1="9.91" x2="31.8" y2="37.64" xlink:href="#c"/><linearGradient id="O" x1="23.28" y1="9.57" x2="23.28" y2="29.77" xlink:href="#c"/><linearGradient id="P" x1="20.69" y1="8.6" x2="20.69" y2="29.61" xlink:href="#c"/><linearGradient id="Q" x1="20.07" y1="9.6" x2="20.07" y2="29.89" xlink:href="#c"/><linearGradient id="R" x1="32.11" y1="9.84" x2="32.11" y2="30.65" xlink:href="#c"/><linearGradient id="S" x1="20.94" y1="8.1" x2="20.94" y2="32.64" xlink:href="#c"/><linearGradient id="T" x1="20.72" y1="8.02" x2="20.72" y2="30.48" xlink:href="#c"/><linearGradient id="U" x1="22.4" y1="9.42" x2="22.4" y2="26.49" xlink:href="#c"/><linearGradient id="V" x1="25.11" y1="10.09" x2="25.11" y2="29.99" xlink:href="#c"/><linearGradient id="W" x1="29.51" y1="8.24" x2="29.51" y2="35.75" xlink:href="#c"/><linearGradient id="X" x1="20.89" y1="8.81" x2="20.89" y2="34.45" xlink:href="#c"/><linearGradient id="Y" x1="19.93" y1="10.88" x2="19.93" y2="23.39" xlink:href="#c"/><linearGradient id="Z" x1="21.8" y1="7.56" x2="21.8" y2="31.02" xlink:href="#c"/><linearGradient id="aa" x1="27.9" y1="8.5" x2="27.9" y2="28.38" xlink:href="#c"/><linearGradient id="ab" x1="28.35" y1="8.35" x2="28.35" y2="29.09" xlink:href="#c"/><linearGradient id="ac" x1="19.44" y1="7.71" x2="19.44" y2="48.46" xlink:href="#c"/><linearGradient id="ad" x1="20.42" y1="9.39" x2="20.42" y2="34.07" xlink:href="#c"/><linearGradient id="ae" x1="21.18" y1="8.92" x2="21.18" y2="28.87" xlink:href="#c"/><linearGradient id="af" x1="27.41" y1="7.51" x2="27.41" y2="30.95" xlink:href="#c"/><linearGradient id="ag" x1="19.87" y1="9.38" x2="19.87" y2="33.79" xlink:href="#c"/><linearGradient id="ah" x1="21.26" y1="7.93" x2="21.26" y2="30.56" xlink:href="#c"/><linearGradient id="ai" x1="19.39" y1="9.66" x2="19.39" y2="36.97" xlink:href="#c"/><linearGradient id="aj" x1="22.43" y1="8.66" x2="22.43" y2="28.43" xlink:href="#c"/><linearGradient id="ak" x1="33.98" y1="9.79" x2="33.98" y2="28.46" xlink:href="#c"/><linearGradient id="al" x1="21.05" y1="7.91" x2="21.05" y2="30.6" xlink:href="#c"/><linearGradient id="am" x1="26.14" y1="8.24" x2="26.14" y2="29.49" xlink:href="#c"/><linearGradient id="an" x1="26.7" y1="8.5" x2="26.7" y2="27.09" xlink:href="#c"/><linearGradient id="ao" x1="22.13" y1="8.4" x2="22.13" y2="29.7" xlink:href="#c"/><linearGradient id="ap" x1="26.71" y1="8.12" x2="26.71" y2="29.27" xlink:href="#c"/><linearGradient id="aq" x1="20.29" y1="9.68" x2="20.29" y2="29.34" xlink:href="#c"/><linearGradient id="ar" x1="20.17" y1="9.23" x2="20.17" y2="35.93" xlink:href="#c"/><linearGradient id="as" x1="29.43" y1="9.27" x2="29.43" y2="26.42" xlink:href="#c"/><linearGradient id="at" x1="30.75" y1="9.84" x2="30.75" y2="26.49" xlink:href="#c"/><linearGradient id="au" x1="33.03" y1="9.24" x2="33.03" y2="29.7" xlink:href="#c"/><linearGradient id="av" x1="31.35" y1="9.27" x2="31.35" y2="28.46" xlink:href="#c"/><linearGradient id="aw" x1="20.64" y1="8.4" x2="20.64" y2="30.12" xlink:href="#c"/><linearGradient id="ax" x1="29.64" y1="8.33" x2="29.64" y2="29.75" xlink:href="#c"/><linearGradient id="ay" x1="31.22" y1="7.57" x2="31.22" y2="31.67" xlink:href="#c"/><linearGradient id="az" x1="31.98" y1="10.22" x2="31.98" y2="26.99" xlink:href="#c"/><linearGradient id="aA" x1="32" y1="14.94" x2="32" y2="16.95" xlink:href="#c"/><linearGradient id="aB" x1="29.06" y1="7.96" x2="29.06" y2="30.36" xlink:href="#c"/><linearGradient id="aC" x1="32.06" y1="9.08" x2="32.06" y2="29.15" xlink:href="#c"/><linearGradient id="aD" x1="33.2" y1="9.42" x2="33.2" y2="29.32" xlink:href="#c"/></defs><g data-name="Layer 1"><path fill="#fff" d="M-29.5-12.71H80.8v78.79H-29.5z"/><path d="M42.88 17.83a17.25 17.25 0 00-34.48.64 17 17 0 001.36 6.79c3.78 10.25 14.3 22.51 15.73 23.88a.23.23 0 00.32 0c1.56-1.44 13.75-14.79 16.52-26.21 0-.11.05-.22.08-.33s.05-.21.07-.32a16.5 16.5 0 00.36-2.44v-.09-1.22c.06-.24.05-.47.04-.7zm-17.23 9.66a8.95 8.95 0 118.94-8.95 9 9 0 01-8.94 8.95z" fill="url(#d)"/><path d="M11.17 18.46A14.09 14.09 0 0115.15 8a14.53 14.53 0 014.79-3.29 14.63 14.63 0 0111.42 0A14.49 14.49 0 0136.14 8a14.09 14.09 0 014 10.49.13.13 0 01-.14.13.13.13 0 01-.13-.13 14.66 14.66 0 00-4.42-9.78 14.08 14.08 0 00-19.56 0 14.57 14.57 0 00-4.42 9.78.14.14 0 01-.15.13.14.14 0 01-.15-.16z" style="mix-blend-mode:screen" fill="url(#a)" opacity=".3"/><path d="M25.65 7a11.52 11.52 0 1011.52 11.54A11.52 11.52 0 0025.65 7zm0 20.47a8.95 8.95 0 118.94-8.95 9 9 0 01-8.94 8.97z" fill="url(#b)"/><path d="M25.59 35.18a19.4 19.4 0 01-14.12-6.07 111.59 111.59 0 0014 20 .23.23 0 00.32 0c1.31-1.21 10.12-11.37 14.55-20.76a19.45 19.45 0 01-14.75 6.83z" style="mix-blend-mode:multiply" fill="url(#e)" opacity=".2"/><path d="M35.69 32.45a.15.15 0 00-.18.06A20.66 20.66 0 0133.35 36c-.81 1.12-1.65 2.2-2.53 3.27-1.66 2-3.4 4-5.17 6q-2.67-2.91-5.18-6c-.87-1.07-1.72-2.15-2.53-3.27a20.66 20.66 0 01-2.16-3.49.14.14 0 00-.18-.06.14.14 0 00-.07.18 21.85 21.85 0 002.1 3.6 80.18 80.18 0 002.47 3.35c1.7 2.18 3.46 4.3 5.29 6.39a.21.21 0 00.1.06.15.15 0 00.09 0h.09a.15.15 0 00.09 0 .24.24 0 00.09-.06c1.82-2.09 3.59-4.21 5.29-6.39.85-1.1 1.67-2.21 2.46-3.35a21.21 21.21 0 002.11-3.6.14.14 0 00-.02-.18z" style="mix-blend-mode:screen" fill="url(#f)" opacity=".3"/><path d="M29.27 8a6.36 6.36 0 011.85.85c-.94 1.18-1.35 1.71-1.35 1.71l-.95-.43z" style="mix-blend-mode:multiply" fill="url(#g)" opacity=".2"/><path d="M17.52 14.38c.82-1.39 1.88-3 3.24-3.6-.57-1.09-1.06-1.94-1.06-1.94a10.39 10.39 0 00-4.15 4.6c.94.42 1.97.94 1.97.94z" style="mix-blend-mode:multiply" fill="url(#h)" opacity=".2"/><path d="M29.27 29.31a6.36 6.36 0 001.85-.85c-.94-1.18-1.35-1.71-1.35-1.71l-.95.43z" style="mix-blend-mode:screen" fill="url(#i)" opacity=".3"/><path d="M17.52 22.71c.82 1.39 1.88 3 3.24 3.6-.57 1.09-1.06 1.94-1.06 1.94a10.39 10.39 0 01-4.15-4.6c.94-.43 1.97-.94 1.97-.94z" style="mix-blend-mode:screen" fill="url(#j)" opacity=".2"/><path d="M25.65 2.3a20.73 20.73 0 0111.94 3.8 17.25 17.25 0 00-23.9 0 20.8 20.8 0 0111.96-3.8z" style="mix-blend-mode:screen" opacity=".1" fill="url(#k)"/><path d="M37 20.58a11.34 11.34 0 01-1.29 3.73 11.82 11.82 0 01-2.51 3.08 11.4 11.4 0 01-3.41 2.05 11.51 11.51 0 01-7.85.14 11.53 11.53 0 01-6.11-4.9A11.1 11.1 0 0114.39 21a11.79 11.79 0 001.54 3.61 11.5 11.5 0 009.93 5.31 11.36 11.36 0 003.83-.72 11.6 11.6 0 003.36-2 11.29 11.29 0 002.53-3A11.55 11.55 0 0037 20.58z" style="mix-blend-mode:screen" opacity=".4" fill="#fff"/><path d="M14.16 17.62a11.2 11.2 0 011.05-4.16A11.51 11.51 0 0117.75 10a11.54 11.54 0 0112.19-2.33 11.41 11.41 0 017.2 10l-.07-.53-.07-.52c0-.18-.08-.35-.11-.52s-.09-.35-.14-.52a11.42 11.42 0 00-.78-2 11.72 11.72 0 00-2.55-3.38A11.42 11.42 0 0029.81 8a11 11 0 00-4.13-.78 11.51 11.51 0 00-4.15.78 11.63 11.63 0 00-7.37 9.66z" style="mix-blend-mode:screen" opacity=".3" fill="#fff"/><path d="M34.14 17.38a.14.14 0 010-.06v-.08h-.05a.76.76 0 01-.25-.06c0-.14-.1-.1-.16-.18s-.19-.19-.15-.25a.12.12 0 01.1-.06.05.05 0 000 .05v.05a.05.05 0 000 .05.11.11 0 01.07 0h.06c.13.08.14 0 .18 0a7.15 7.15 0 00-1.51-3.68l-.14-.1h-.08l-.1-.05h-.09-.08l-.11-.09h.07c.07 0 0 0 0 0a.83.83 0 00-.22-.14c.05 0 .07.07.07.1s.07.06.07.1 0 0-.05 0a.22.22 0 00-.1-.06h-.11a.71.71 0 01-.17-.09h-.07s.07 0 .09.07 0 0-.05 0l-.09-.06h-.05l-.05-.05.07.21c0-.05 0-.05-.06-.08s-.05 0-.06-.05.1 0 .14.06l.28.15c.06 0 .18 0 .05-.09a3.77 3.77 0 00-.51-.34c-.1 0-.14-.13-.2-.13H30.76a2.12 2.12 0 00-.2-.13s-.07-.05-.09 0c-.08-.1-.13 0-.27-.1s0 0-.05 0l-.26-.29h-.14-.16s.1 0 .12.05a.6.6 0 00-.11.06.06.06 0 00-.05.08c0 .07-.06 0-.07.05s0 0-.05.07a.07.07 0 01-.08 0h-.26c-.05 0-.06 0-.06.09a1.27 1.27 0 00.06.18.35.35 0 00-.09.42v.05a.21.21 0 00.26.05.12.12 0 01.13 0s.05 0 .07.07a.42.42 0 00.08.12l.08.1h-.06a.05.05 0 00-.05 0v.06a.13.13 0 010-.11.07.07 0 000-.05v-.11h-.07c-.07 0-.05.13 0 .16s0 .11 0 .17a1.7 1.7 0 00-.22 0s-.08 0-.07.08a.31.31 0 01-.18.11c-.09 0 0 .11-.11.12s0 .07-.13.05 0 0-.06 0h-.05s.05.1 0 .11 0 0-.06 0h-.16c-.06 0 0 0 0 0a.07.07 0 000 .07.33.33 0 01.23.15.34.34 0 01.07.29c0 .08 0 .09-.09.09h-.22a1 1 0 00-.25 0 .2.2 0 00-.17 0v.07a.48.48 0 010 .44.11.11 0 000 .08c.09 0 0 .17.08.18a.09.09 0 00.11 0c.08 0 .07.11.11.14v.06c0 .05 0 .23-.21.28-.05 0-.11.07-.11.17v.25c0 .1-.05.11-.09.13a.63.63 0 00-.12.11c-.05 0-.16 0-.18.16s0 .05-.05.05-.05.06-.07.1 0 .1 0 .15-.05 0 0 .08v.28l.06.09V17.82c-.06 0-.06.05 0 .11a2.43 2.43 0 010 .27v.05s.06.11.12.11c0 .06.09.08.14.12a.49.49 0 01.11.23v.09h.07c.15.06.2.18.42.35a.12.12 0 00.14 0 .51.51 0 01.49 0h.07c.07-.06.15-.05.18-.12H29a.31.31 0 01.2-.07h.09c.12 0 .14.13.18.2s.06.07.15 0 .16-.07.2 0 .06 0 .08.1a.71.71 0 010 .2c-.05.11 0 .2-.07.27s0 .07 0 .13v.05a.17.17 0 00.06.11c0 .05.07.12.12.18a.26.26 0 01.06.14 1.1 1.1 0 00.07.29c0 .12-.06.1 0 .17s0 .09 0 .13a.23.23 0 010 .14v.1c-.1.06-.13.25-.16.33s0 0 0 .05a2.18 2.18 0 000 .22.25.25 0 000 .09.51.51 0 01.07.17v.12a.05.05 0 000 .05.16.16 0 01-.05.8.4.4 0 000 .18v.05a.63.63 0 000 .24.1.1 0 000 .08s0 .06.06.09a.16.16 0 000 .07.25.25 0 000 .13.11.11 0 010 .06.31.31 0 000 .18h.11a.37.37 0 01.13-.08.42.42 0 01.17-.08h.11l.15-.09h.05l.22-.23c.15-.15.19-.25.27-.32a1 1 0 00.17-.26.31.31 0 000-.08v-.06l.17-.12a.13.13 0 00.07-.09.89.89 0 00.06-.2.07.07 0 000-.05v-.08a1.17 1.17 0 01.15-.16.6.6 0 01.21-.18.12.12 0 00.05-.05.12.12 0 00.05-.05.09.09 0 000-.05.19.19 0 00.09-.12.34.34 0 010-.14v-.17-.13-.18-.15c0-.04.06-.16.12-.33.14-.09.12-.16.4-.46 0 0 .07-.05.09-.09a.37.37 0 00.15-.13 2.3 2.3 0 00.34-.56l.06-.13a.38.38 0 010-.1v-.13c0-.06 0 0 0 0h-.46c-.11 0-.09 0-.15-.07s0 0 0-.05.05-.07 0-.12a1 1 0 01-.16-.19s-.06 0-.08-.07v-.05s0-.2-.09-.26a.28.28 0 01-.11-.26 1 1 0 00-.05-.18l-.06-.06a.13.13 0 01-.05-.09v-.07a.84.84 0 01-.11-.21v-.08a.08.08 0 01.08 0v.05a.07.07 0 000 .06s0 .07.05.08 0 .06 0 .08 0 .05.06.07a.29.29 0 01.11.19.27.27 0 000 .13.15.15 0 00.07.11c.12.05.11.22.22.32s-.06 0-.06.08.08.05.07.12 0 .1 0 .13v.14c0 .04 0 0 0 0h.05a.18.18 0 00.1-.06.11.11 0 01.08 0c.06 0 .12-.08.2-.08 0-.06 0 0 .24-.11.07 0 0-.09.08-.12a.42.42 0 01.16 0v-.06h.09c.46-.62.44-.75.41-1.02zm-2.8-4.16l.09.09c.09.09 0 .06 0 0l-.08-.07a.13.13 0 01-.01-.02zm-.24 0a1.1 1.1 0 01.14.11.05.05 0 010 .05c0 .06-.05 0-.09 0l-.09-.1c-.06-.07 0-.08.04-.06zm-1.39.25h.07c.02 0 0-.09.13-.05s.07 0 .1 0 0 0 0-.06v-.13c0-.13 0-.05 0 0h.09s-.05-.08-.09-.09-.19-.26.06-.28a.08.08 0 00.08 0 .07.07 0 01.09 0 1 1 0 01.17.07v.05a.46.46 0 01-.14.07h-.08c-.03 0 0 0 0 .08s0 .13.07.19.26.11.49.15c.08 0 .15.08.11.09a.36.36 0 01-.14 0h-.14a.13.13 0 00-.12 0h-.09c-.03 0 0 0 0 0h.15c.08 0 .05.16 0 .09a.37.37 0 00-.12-.07c-.06 0-.07 0-.07.07v.16s-.06 0-.14-.05-.07 0-.07 0h-.3s-.11-.21-.11-.29zm1.64 1.86zm0 0zm0 0zm-.94-1.65a.08.08 0 00-.03 0zm1.85 2.47v.09a.6.6 0 000 .22.52.52 0 01-.21 0 .17.17 0 00-.21 0h-.05a1 1 0 00-.16-.06.3.3 0 00-.17-.05s0-.06-.1-.06h-.1c-.05-.1-.2-.08-.27 0s0 .12 0 .2-.07 0-.12 0-.29-.06-.33-.21-.16-.08-.2-.07S30 16.06 30 16s0-.08-.09-.07 0 0 0-.07a.18.18 0 00.08-.07.09.09 0 000-.11.15.15 0 010-.07h-.05c-.05 0-.07-.05-.09 0s-.23 0-.35 0h-.2c-.12-.08-.23 0-.32 0a.22.22 0 00-.17.06s-.1 0-.14.07-.1 0-.33 0c-.11-.13.09-.18.19-.15h.07a.35.35 0 01.07-.09.08.08 0 010-.08c.05-.08.08-.17.18-.18H29v-.08c0-.08 0-.14.1-.12a.69.69 0 01.13 0h.18c.09 0 .06-.1.16-.05a.14.14 0 01.06.07c0 .11.09.12.21.24s.05.06.08.06a.43.43 0 01.19.14h.05c.07 0 .13.19 0 .21a.78.78 0 00-.14 0 .16.16 0 00-.1 0c.05 0 .11.05.16.1s.05 0 .07 0 0 0 0-.06v-.05c0 .01.07-.07.11-.09v-.07a.35.35 0 01-.05-.08h.07l.07.05a.09.09 0 00-.06-.06.67.67 0 00-.14-.09c-.06 0 0-.07-.09-.08H30a.39.39 0 01-.08-.1c0-.06-.05-.07-.12-.13a.17.17 0 01-.05-.16h.06s0 .07.05.08 0 0 .07 0a.43.43 0 00.25.26l.11.08a.21.21 0 01.15.23 1.13 1.13 0 00.1.13.29.29 0 01.1.17.09.09 0 010 .07h.12c.05 0 0-.07 0-.09s.08 0 .1 0 0-.07-.08-.08 0 0-.1-.13 0 0 .05 0 0-.05 0 0 .08 0 .13 0v.14c0 .04 0 0 0 0v.09l.07.07a.12.12 0 010 .1.23.23 0 01.2.08.08.08 0 00.12 0 .22.22 0 01.11.05c.07.06.15.08.19 0s.06 0 .11 0 .05 0 .05.07a.17.17 0 000 .12.09.09 0 01.52-.18zm.32-.64h-.16a.4.4 0 01-.16-.06h-.07a.37.37 0 00-.12-.07s-.19-.05-.26 0-.08 0-.28 0a.31.31 0 01-.09-.19s.06 0 0 0 0-.09 0-.12.06 0 .06 0l.06-.1c.06-.1.05 0 .08 0a.3.3 0 00.16.08s.07 0 .09.1h.05A.41.41 0 0132 15s-.11 0-.14-.09 0 0 .17-.05.06.11 0 .12.11.06.11.06l.13.1a.79.79 0 00.15.12c.09.06.12.13.09.19zm0 .08zm.46-.11v-.08-.07-.11s.07.07.09.12a.1.1 0 000 .05c0 .05.07.11.16.15s0 0 0 .06a.1.1 0 010 .08V15.8a.09.09 0 000 .08.14.14 0 010 .06v.11c0 .02-.1 0-.16-.07a.24.24 0 00-.09-.06v-.19c0-.11 0 0 0 0h-.06v-.06z" fill="url(#c)"/><path d="M31.38 15.27z" fill="url(#l)"/><path d="M26.08 11.33a.43.43 0 010-.05h.06c.06 0 0 .08.15.09h.12s0-.13-.1-.15a.1.1 0 000-.14H26.46s.09 0 .16-.1 0 0 .07 0a.14.14 0 00-.12 0h-.07v-.07-.07c0-.01 0 0 0 0h.07c.07 0 0 .06.07.07s0-.06 0-.13h-.06c0-.13.05-.11.1-.16s0 0-.05 0h-.05c.01 0 0 0 0 0s.06-.07.1-.07h.08a.7.7 0 00.14 0h.1a.24.24 0 00-.14-.05h-.48-.05c-.05 0 0 0 0 0h-.07c-.02 0 0 0 0 .05a.07.07 0 000-.05h.05c.05 0 0 0 0 0-.24-.5-.31-.5-.31-.5h-.14a.22.22 0 00-.16 0h-.12a4.32 4.32 0 00-.78.07h-.1a1.41 1.41 0 00-.42.08s-.05-.05-.07 0-.05 0-.07.06H23.7s-.1 0-.35.08h-.33c-.09 0-.17.06-.25.07a4.84 4.84 0 00-1.07.49c-.1.11-.18.06-.31.2h-.05a1.3 1.3 0 00-.19.11h-.06l-.09.24h.05c.05-.05 0 0 0 0h.07c.07 0 0 0-.05.06h-.16l-.16.12a1.59 1.59 0 01-.13.13H20.77c.02 0 .22-.09.25-.11a.41.41 0 00.16-.1l-.05.07h-.06a.46.46 0 01-.13.08h-.06c-.08 0-.12.08-.16.08h-.05a.29.29 0 00-.14.09h.06-.14.07l.05-.06h.07a.7.7 0 00.19-.1l.18-.07.15-.07h.06a.44.44 0 00.17-.06s.05 0 .07-.05a.47.47 0 00-.24.08 1.36 1.36 0 00-.2.11l-.18.08c.1-.1.11-.06.16-.1s.15 0 .24-.12l.13-.06s.08-.05.08 0a.25.25 0 01.09 0v-.05h.08c.08 0 0 0 0 0h-.07c-.02 0 0 0 0 0 0-.07.06 0 .11-.08a.07.07 0 00.06 0 1.49 1.49 0 01.14-.12s.09-.05.14-.07.08 0 .17-.12h.07l.28-.15a.07.07 0 00.06-.05h.09c0 .1 0 0-.17.1s-.12.08-.19.11a.17.17 0 00-.07 0h.14c.14 0 0 0 0 0a3.05 3.05 0 00-.32.13l-.2.11h.13a.1.1 0 00-.05.06h.15a.35.35 0 00.2-.06h.11s.05-.05.1 0a1 1 0 01.18 0s.1 0 .13.06a.15.15 0 01.11.08s.06.08.06.19a.14.14 0 00.15 0c.06 0 0 .07.09 0s-.05 0-.11 0-.05 0-.05.05v.06c0 .06 0 0 0 0a.3.3 0 00.18 0v-.05h.07v.06a.08.08 0 01-.06.1c-.05 0-.11 0-.16.09s0 .12 0 .16.11.1.1.2.05.07.06.13a.34.34 0 01.09.08l.12.15c.04.05.06 0 .22 0h.05c.05 0 .09.05.15.05a.07.07 0 00.06 0v-.06c0-.1.09-.11.08-.19s.08-.07.11-.15.05-.08 0-.12a.36.36 0 01.22-.09c.08 0 .18-.06.26-.08a.17.17 0 00.1-.07h.13a2.65 2.65 0 00.38-.05.59.59 0 00.19 0 .87.87 0 01.25-.1 2.56 2.56 0 00.42-.38zm.45-.93zm0 .12zm0 .3zm-.06-.39l-.05.05zm-.05.45zm-.07-.21zm0 0zm-.09.26zm0 0zm-5.38.7zm.12 0zm0 0zm-.29.33zm.47-.28h.05zm.08-.09a.06.06 0 00.05 0s-.07-.09-.09-.07zm.08-.2zm0 0h-.07.06zm.05.17zm.14-.2zm-.08.11zm0-.06zm.05 0zm0 .09zm.35-.4a.28.28 0 01.08-.05.28.28 0 00-.1-.05zm.5.14l.2-.08zm.35-.17zm.76.18zm0 .07zm0 0zm.16-.92zm-.06 1.2zm.3-1.29zm-.28 1.67zm.18-.26zm0 .22zm0-.25zm0-.07zm0 0zm-.05.45l.05.06zm.58.53zm1.39-1.39zm.07.06zm.28-.1zm-.11-.17zm0 .31zm0-.06zm.14-.14zm-.1-.95a.27.27 0 00.1 0 .27.27 0 01-.13-.03zm.19 1.06h-.05s0-.01.02-.03z" fill="url(#m)"/><path d="M25.13 21.11c0-.16-.12-.06-.19-.11s-.08-.1-.31-.27H24.33a.09.09 0 00-.08 0c-.15 0-.09-.12-.17-.14h-.07c-.16-.09-.22-.06-.28-.13l-.09-.2c0-.06-.06-.1-.12-.11s0 0 0-.06a.11.11 0 010-.08c0-.09 0-.13-.09-.18-.23-.19-.31-.23-.42-.19s-.28-.18-.34-.26 0 0-.07 0a.69.69 0 00-.19-.19c.05 0 0-.08 0-.08v.06c0 .06 0 0-.07 0s0-.07 0-.07h-.1c-.04 0 0 0 0 0-.12.08-.11-.09-.28 0a.08.08 0 01-.1 0c0-.07 0-.09-.1-.09v-.07-.06c0-.03-.06 0-.08 0-.18.22-.35.07-.36.28v.06c0 .01-.06.08-.1.11s0 0-.11-.06-.28.13-.39 0-.2-.16-.16-.34a.88.88 0 000-.23s0-.15-.09-.15 0 0 0-.05a.17.17 0 00-.12 0 .75.75 0 01-.21 0s-.05 0 0-.06a.09.09 0 000-.07c0-.07 0-.14.05-.21a.29.29 0 000-.1c0-.17.1-.13.07-.24s0 0-.06 0a.52.52 0 00-.21 0c-.2.06-.07.24-.22.29s-.2.11-.25.08-.15-.07-.17-.18-.07-.07-.07-.16c-.05-.08 0-.18 0-.23a.42.42 0 010-.15.23.23 0 000-.21.12.12 0 010-.08c.16-.17.15-.09.27-.24h.35c.06 0 0 0 0 0v-.07h.19a.14.14 0 01.12 0c0 .08.09 0 .14 0a.18.18 0 01.08.2c0 .08 0 .09.09.27s0 .14-.1.16a.3.3 0 00.16 0l.05-.05a.42.42 0 000-.27 1.8 1.8 0 00-.06-.22v-.08a.22.22 0 010-.14.3.3 0 01.12-.15.87.87 0 00.01-.59.1.1 0 00.11-.06l.15-.09a.09.09 0 000-.08s-.06-.08 0-.16a3.54 3.54 0 01.19-.33v-.05c0-.05.12 0 .16-.1.12-.05.17 0 .18-.05s0-.18.05-.22c.23-.13.24-.11.3-.17a.29.29 0 01.17-.06l-.06.06a.1.1 0 000 .1H22c.05 0 .12-.13.19-.13a1.12 1.12 0 00.28-.16c.06 0 0 0 0-.11s0-.05-.14.09a.12.12 0 01-.13 0h-.07c-.07 0 0-.1 0-.16s-.1 0-.14 0a.24.24 0 00.13 0v-.06-.05a.7.7 0 00-.36.15h-.05c-.05 0 .29-.26.29-.36a.17.17 0 01.1-.09c.35-.1.51 0 .68-.14a.33.33 0 01.23-.11c-.05 0-.08.12-.13.18s-.16.21-.14.26a.15.15 0 01.09 0 1 1 0 00.17 0c.07 0 0 .11.07.08s.08-.08.1 0 .06 0 .08 0 .06 0 .1-.07a.06.06 0 000-.06v-.09c0-.02 0-.07-.05-.11s-.15.06-.21-.06 0 0 0-.07a.56.56 0 00.05-.08v-.06c0-.06 0-.17-.07-.19s0 0 0-.05-.1 0-.12 0-.12 0-.16-.09 0 0 0-.06v-.07-.05s-.05 0-.05-.07-.11-.12-.12-.19a.44.44 0 00-.08.11.14.14 0 01-.07.08c-.15.13-.18.05-.22 0s-.08-.07 0-.17-.13 0-.15 0-.07 0-.11-.07a.09.09 0 00-.07 0 .34.34 0 01-.21 0c-.07 0-.17 0-.14.11s0 0 0 .05v.15c0 .06-.14.14-.07.17.06 0 .07.09.06.16a.58.58 0 01-.28.24c-.08 0 0 .08 0 .12a.48.48 0 000 .12.06.06 0 010 .06l-.05.05h-.13c-.05 0 0 0 0 0v-.07s-.13 0-.09-.12 0-.09 0-.08a.38.38 0 00-.13 0h-.18a.23.23 0 00-.2 0h-.13c-.13 0-.07-.05-.08-.07s0 0-.09 0 0-.12.05-.17a.7.7 0 00.08-.1l.11-.1a.67.67 0 01.14-.11s.08-.12.17-.15a.5.5 0 00.19-.13.18.18 0 00.05-.07h.06a.14.14 0 010 .06s-.05.11-.11.14 0 .06 0 .05H21.06c.09 0 .1-.12.17-.1H21.29c-.08 0 0 0 0 0h-.13c-.05 0 0 0 0 0a.87.87 0 00.11-.09c.22-.14 0-.09.09-.17s.07-.07.05-.1h-.05.05-.05c.08-.13.13 0 .26-.12s0 .06 0 .07-.07 0-.08.06 0 0 .1 0 0-.09.09-.16.06 0 0 .11a.08.08 0 000 .07h.07a.3.3 0 00.11 0s.16-.09.16-.05a.27.27 0 01-.08.07 1.43 1.43 0 01-.15.11.13.13 0 01-.11.06s-.07.05-.11.09 0 .05 0 .05a.15.15 0 00.13 0 .3.3 0 01.36 0 .15.15 0 01.07 0 .08.08 0 01.08 0h.06a.91.91 0 01.23 0v-.06a.26.26 0 00-.12-.05h.29c.08 0 0 0 0 0v-.05h-.05c0-.06-.08-.05-.05-.15s.13.09.28.07 0 0 0-.05h.05c.06 0 .09-.08.13-.13a.35.35 0 00-.14 0 .13.13 0 00-.11 0h-.14c-.04 0 0 0 0 0l.06-.05c.06-.05 0 0 0 0H22.54a.15.15 0 01-.13 0h-.4c-.05 0-.09 0-.16.06l-.13.07h-.13c-.06 0-.07 0-.12.07a.91.91 0 00-.17.17v.15c0 .02.05 0 .09 0h.11a.56.56 0 000 .12s0 .07-.08.1 0-.08 0-.08h-.08c-.08 0 0 0 0 0h-.05c-.05 0 0 0 0-.06s0 0 .06-.07h.05a.28.28 0 00.11-.07l.05-.05a.65.65 0 00-.15.05l-.17.09-.09.09s-.05.06 0 0 0 0-.06.09 0 0-.05.06 0 .07 0 .08 0 0-.05 0-.06 0-.09.05l-.09.08h.07a.14.14 0 00-.07.08s-.09 0-.18.09-.09 0-.18.08h-.1s-.11.07-.18.11a1.73 1.73 0 01-.28.16s.06 0 .1-.09-.1.05-.17.09a7.16 7.16 0 00-1.42 3.16c.07.21 0 .22.08.24s.05 0 .06.06 0 0 0 .06a.09.09 0 01-.06 0 .14.14 0 00.09.08s.05 0 .08.05 0 .11 0 .15.11.07.14.15 0 0 0-.06 0-.08-.05-.08 0 0 0-.08v-.12c0-.05-.09-.1-.09-.19 0-.07 0-.09-.05-.08s0-.07 0-.2.05 0 .08 0 0 0 .05.07v.16l.08.06c.08.06 0 0 0 .05s.05.07.08.09 0 .08 0 .12h.05l.05.06c0 .05.07.1.1.16.13.22 0 .25.06.35s.09 0 .13.11a.94.94 0 01.22.12l.3.13c.23.11.15-.23.46.15.1.12.12.05.27.14a.2.2 0 00.15 0V19a.45.45 0 00.1.13c.1.11 0 .17.09.22s.14 0 .15.1.19.08.22.15.05 0 .08.07 0 0 .06 0 0 0 0-.05 0-.05.07-.13.05 0 .06.07.1.17.12.26 0 .1 0 .15v.17s0 .09-.07.1 0 .19-.13.2a.53.53 0 010 .18 1 1 0 000 .17s.06.07.1.08a.14.14 0 00-.08.11v.19c0 .05.11.08.15.21a.13.13 0 000 .05 1.83 1.83 0 01.13.24c.18.38.25.39.24.5s.08.08.11.13a.66.66 0 00.17.12 1.39 1.39 0 01.24.22.35.35 0 000 .13c0 .26.05.32 0 .4a1.4 1.4 0 010 .48V23.82a.19.19 0 000 .16 1 1 0 010 .34v.25a.46.46 0 01.07.26 1.14 1.14 0 010 .25s.07.06.07 0a.09.09 0 000-.09v.06a.07.07 0 000 .07c0 .07-.12-.08-.08.07a.13.13 0 010 .14l.08.05c.08.05 0 0 0 0h-.06a.11.11 0 000 .05.42.42 0 01.06.14s.06.05.05.09a.84.84 0 00.18.23.19.19 0 00.12.09.2.2 0 00.1.09l.12.08c0 .06.07 0 .2 0s-.17-.14-.19-.21-.05-.07-.11-.18.06 0 .05-.15.06-.06.09-.1 0-.13-.06-.14h-.09a.13.13 0 01-.06-.09v-.05h.09c.01 0 0 0 0 0v-.11h.09c.03 0 0-.13 0-.1a.12.12 0 01-.08 0v-.08c0-.05 0-.05.05 0s0 0 .05 0 .18.06.17-.09 0-.07.05-.07H23h.14a.23.23 0 00.09-.14.11.11 0 000-.05.22.22 0 010-.14h.09c.04 0 .18-.1.23-.18a.42.42 0 000-.12s.05 0 .06-.05.05 0 .05-.06v-.11a.5.5 0 01.08-.12c.11-.12 0-.29.06-.4l.12-.11c.14-.11.11 0 .17-.09a.23.23 0 01.1-.07.49.49 0 00.17 0s.11 0 .1-.11a.16.16 0 010-.1v-.08c0-.03 0 0 .05-.07.05 0 0-.14.07-.18s0 0 0-.07v-.27a.65.65 0 010-.24c0-.07.08 0 .08-.12a.14.14 0 00.06-.13.05.05 0 000-.05c.05 0 0 0 .1-.13a.1.1 0 000-.05.55.55 0 00.31-.43zm-2.08-7.44s-.05 0 0 0zm-2.27 1.22a.3.3 0 01.11-.06.42.42 0 00.15 0v.05a.15.15 0 01-.11 0c-.1 0-.18.06-.18 0zm0 .11c-.05.05-.11.06-.17.11-.05 0-.08.06-.15 0 .07 0 .06-.06.1-.06s.23-.12.24-.05zm-.26-.35h.1a.09.09 0 01.05 0 .1.1 0 010 .13H20.55a.2.2 0 000 .08c0 .06-.05.08-.07.08s0-.1-.05-.08 0-.09-.06-.13a.23.23 0 01.17-.08zm-.26.15s-.06 0-.08.06a.21.21 0 00-.05.18.25.25 0 01-.08.17s-.08 0-.07-.06a.44.44 0 01.07-.24.15.15 0 01.08-.12l.13-.06zm-.5-.08c0-.09.11-.09.21-.17a.4.4 0 01.25-.11s0 .08.08.07a.16.16 0 010 .1h-.27c-.05 0 0 0 0 0s-.06 0-.08.05l-.1.05zm2.51-2.13zm-.12-.15a.08.08 0 01.02 0zm-.15-.23c0-.06 0-.07.07 0s.05 0 .08 0H22zm0 .16s-.05 0 0 0 0-.04 0 0zm-.46-.37h-.05.05zm-.71.57s-.07.05-.08 0zm2.32 12.35z" fill="url(#n)"/><path d="M19.46 16.58z" fill="url(#o)"/><path d="M22.59 12.19z" fill="url(#p)"/><path d="M22.22 12.54z" fill="url(#q)"/><path d="M21.49 11.75z" fill="url(#r)"/><path d="M21.31 11.78z" fill="url(#s)"/><path fill="url(#u)" d="M18.85 18.1v-.01.01z"/><path d="M20.55 21z" fill="url(#v)"/><path fill="url(#w)" d="M22.02 25.24v-.01.01z"/><path fill="url(#x)" d="M22.04 25.28z"/><path d="M22.68 26.46z" fill="url(#y)"/><path d="M22.51 25.51z" fill="url(#z)"/><path d="M23.18 24.66z" fill="url(#A)"/><path d="M19.75 12.75h-.09l.08-.09a.31.31 0 00-.15.09s-.07.07-.07.05c-.05 0 0 0-.05.09s-.1 0-.12.07a.5.5 0 00-.13.1h-.05l-.17.21v.05l.09-.06.12-.08-.29.19.19-.11.24-.15.08-.05.09-.07a.18.18 0 01.15-.07c.2-.1.2-.1.21-.12h.06c-.06-.1-.16-.05-.19-.05z" fill="url(#B)"/><path d="M21 17.7h.05-.12c-.05 0-.13 0-.19-.18h.19v-.13-.05h-.08c-.03 0 0-.06 0-.09s0-.13-.06-.07 0 0-.05 0 0 .05 0 .07h-.09a.06.06 0 000-.06v-.1s-.1-.06-.11 0l.09.05-.07-.14v.06a.16.16 0 00.06.19c-.07 0-.14 0-.2-.06h-.16c-.06 0-.22 0-.24.11s0 .06 0 0 .06 0 .08 0a.14.14 0 00.19 0 .08.08 0 01.07 0 .09.09 0 00.08.05c0 .11.12.1.17.21h.14a.17.17 0 00.25.14zm-.27-.51z" fill="url(#E)"/><path d="M33.26 21.41a.48.48 0 010-.12.13.13 0 000-.12h-.06a.64.64 0 000 .07.12.12 0 00-.06.1.93.93 0 01-.32.25.39.39 0 00-.09.29.1.1 0 010 .07l-.09.13c0 .05-.08.1-.07.14s-.08.23 0 .23.12 0 .14-.05 0 0 .06 0l.1-.15c0-.1.12-.21.18-.31s.13-.21.17-.32a.11.11 0 000-.09.09.09 0 000-.06zm-.19.18z" fill="url(#F)"/><path d="M27.66 13.6a.13.13 0 00.08 0c.12 0 .14-.06.2 0s.08 0 .1-.07 0-.06 0-.09.11-.06 0-.16-.12-.06-.18-.07-.09 0-.09.08-.11 0-.12 0a.1.1 0 000 .09v.06c0 .06 0 0 0 0s-.02.14.01.16z" fill="url(#G)"/><path d="M20.27 12.11h-.08c-.03 0-.07.06-.11.09s0 0-.07 0H20.18l.15-.08c.15-.08 0 0 0 0v-.06c0-.06 0 0 0 0h-.07zm-.13.08zm0 0z" fill="url(#H)"/><path d="M21.06 18h.13c.05 0 .08.13.13 0s0-.06 0-.05.13 0 .19 0 .09-.07 0-.09-.16-.15-.27-.11-.09 0-.15 0 0 0 0 .09h-.11s.02.16.08.16z" fill="url(#I)"/><path d="M32.47 13.29c-.07-.06-.14-.13-.12-.14l-.12-.15s-.06 0 0 0a.12.12 0 000 .05s.08.08.11.09h.05l.17.13zm-.25-.29z" fill="url(#J)"/><path d="M19.44 12.63a.74.74 0 00.16-.12l.07-.06h-.05a.71.71 0 00-.18.17z" fill="url(#K)"/><path d="M20.65 11.83h.05s-.1.07-.08 0a.36.36 0 00-.15.06h-.07a.1.1 0 000 .05c.13-.02.18-.09.25-.11z" fill="url(#L)"/><path d="M31.32 12.14l.12.1.06.06a.34.34 0 01-.06-.06.14.14 0 01-.08-.07l-.16-.11z" fill="url(#M)"/><path d="M31.9 12.61l-.06-.06h-.05l.11.1.06.06.07.06zm-.06 0z" fill="url(#N)"/><path d="M23.36 26.31h-.19c-.01 0 0 0 0 0l.11.05a.11.11 0 00.11 0s-.01-.04-.03-.05z" fill="url(#O)"/><path d="M20.73 17s.08 0 .05-.07-.2-.12-.19 0 .09-.08.14.07z" fill="url(#P)"/><path d="M20.25 12.31s-.09 0-.15.09a.41.41 0 00-.12.09s.06 0 0 0h-.07s-.09 0-.08.06.1-.06.15 0 .05 0 .09 0h.1l.07-.08c.07-.08 0 0 0 0s0-.15.01-.16zm-.06 0z" fill="url(#Q)"/><path d="M32 13.1v.06l-.06-.06c-.06-.06.11-.01.06 0z" fill="url(#R)"/><path d="M20.86 12.92a.24.24 0 00.16-.11h-.12z" fill="url(#S)"/><path d="M20.66 17.89v.05a.14.14 0 00.15 0s-.06-.06-.15-.05z" fill="url(#T)"/><path d="M22.31 13.94h.08s.13.05.15 0a.34.34 0 00-.23 0z" fill="url(#U)"/><path d="M25 26.84a.25.25 0 00.08.05s0 .05.08 0a.13.13 0 00-.16-.05z" fill="url(#V)"/><path d="M29.08 11s.12.15.17.16a.45.45 0 01.14.1h.06c.06 0 0 0 0 0h.06c.06 0 .05 0 .11.09s0 0 0 .05h.09s.07.08.08.05.06 0 .06 0H29.73h-.05.1a.44.44 0 00.28.09 1.31 1.31 0 00-.21-.1c-.06-.07-.05 0-.09 0l-.15-.08h-.05a.43.43 0 00-.16-.09c0 .05-.05 0-.07 0h-.08c-.08 0-.15-.09-.2-.09a.14.14 0 00.03-.18zm.76.34zm-.34-.28zm-.29 0zm-.13-.06zM29 11zm0 0z" fill="url(#W)"/><path d="M20.93 11.7a.12.12 0 00-.08 0s0 .05.08 0z" fill="url(#X)"/><path d="M19.88 12.31s.06 0 .11-.05h-.08l-.03.05z" fill="url(#Y)"/><path d="M21.71 17.92H21.86v-.06c0-.06-.15-.01-.15.06z" fill="url(#Z)"/><path d="M27.88 13c0-.09.08 0 .08-.12s-.13 0-.12.1.05.02.04.02z" fill="url(#aa)"/><path d="M27.94 13v.11s-.06 0-.06.06.08.05.11 0 0 .05 0 .07c0 .07.05 0 .14.09a.32.32 0 010 .09h-.14v.13c0 .01.05 0 .07 0s0 0-.1.12.08 0 .13 0H28.55v-.09c0-.03 0-.11-.08-.12s-.08-.16-.2-.21 0-.1-.15-.17 0-.07 0-.15 0 0-.12-.06 0 0-.06 0h.05c.05 0 0-.05 0-.07s0-.05 0 0-.15 0-.17.06H28s-.08.14-.06.14z" fill="url(#ab)"/><path d="M19.74 12.47c-.12.1 0-.05-.12 0l-.08.08s-.09.09-.11.09a.85.85 0 00-.15.09l.08-.07-.09.08a.34.34 0 01-.06.06l-.05.05.08-.06.19-.15c.2-.16.25-.15.37-.27s0 .05-.06.1z" fill="url(#ac)"/><path d="M20.37 11.87h.07-.07z" fill="url(#ad)"/><path d="M21.14 12.89s.1-.1 0-.09 0 .07 0 .09z" fill="url(#ae)"/><path d="M27.43 16.43a.31.31 0 00-.07.14c.08 0 .07-.09.1-.13s-.03-.02-.03-.01z" fill="url(#af)"/><path d="M19.83 12.45h.08c.08 0-.03-.05-.08 0z" fill="url(#ag)"/><path d="M21.29 17.49a.05.05 0 000 .05v-.05z" fill="url(#ah)"/><path d="M19.41 12.65h-.06z" fill="url(#ai)"/><path d="M22.44 12.66v-.07c0 .01-.05.08 0 .07z" fill="url(#aj)"/><path d="M34 18.6z" fill="url(#ak)"/><path d="M21 17.42v-.05s-.05-.05-.05 0 .05.05.05.05z" fill="url(#al)"/><path d="M26.06 10h.16-.16z" fill="url(#am)"/><path d="M26.67 10.57s0-.03 0 0z" fill="url(#an)"/><path d="M22.11 12.82z" fill="url(#ao)"/><path d="M26.91 12.11h.13l.1-.06v-.07l-.12-.09h-.05c-.07-.05-.08 0-.18 0h-.31c-.08 0 0 0 0 0s0-.06-.19 0 0 0 .05 0h.13c.05 0 0 0 0 .05.19 0 .16.08.25.06a.14.14 0 00.18-.05zM27 12zm-.3 0zm.08.07a.07.07 0 010-.05.07.07 0 00-.02.04zm0 0z" fill="url(#ap)"/><path d="M20.29 12.21s-.01.01 0 0z" fill="url(#aq)"/><path d="M20 12.17l.14-.09.08-.05a.3.3 0 00.11-.06h-.06s-.07 0-.11.06h-.05l-.12.1s.01.05.01.04zm.19-.13z" fill="url(#ar)"/><path d="M30.74 12.36s.01.01 0 0z" fill="url(#at)"/><path d="M33 15.44z" fill="url(#au)"/><path d="M31.35 15.07s.01.01 0 0z" fill="url(#av)"/><path d="M20.64 14.76v.06h.05s-.04-.07-.05-.06z" fill="url(#aw)"/><path d="M29.67 15.05a.34.34 0 010-.1.08.08 0 000-.09s-.08 0 0 .11a.59.59 0 010 .08.05.05 0 01-.05 0s0 .21.08.21.07-.11.07-.14a.16.16 0 00-.1-.07z" fill="url(#ax)"/><path d="M31.12 15.87h.24c.05 0 0 0 0 0s-.18.02-.24 0z" fill="url(#ay)"/><path d="M31.91 16c.05 0 .09 0 .09-.09s-.06.09-.09.09z" fill="url(#az)"/><path fill="url(#aA)" d="M32 15.95z"/><path d="M29 15.18s.08.06.08 0H29z" fill="url(#aB)"/><path d="M33.19 15.64z" fill="url(#aD)"/></g></svg>